<?xml version="1.0" encoding="iso-8859-1" ?>
<svg width="56" height="30" viewBox="0 0 56 30" fill="none" xmlns="http://www.w3.org/2000/svg">
<path fill-rule="evenodd" clip-rule="evenodd" d="M18.8105 18.1273C18.8105 19.7378 17.929 20.7865 16.3537 20.7865C14.7971 20.7865 13.8594 19.9813 13.8594 18.3708C13.8594 17.4157 14.572 16.3483 16.3162 16.3483H18.8105V18.1273ZM14.1032 11.0112C14.4032 10.0187 15.1534 9.38202 16.2036 9.30711C17.629 9.2322 18.8105 10.412 18.8105 11.8352V13.7079H16.3162C13.1092 13.7079 10.9712 15.4682 10.9712 18.427C10.9712 21.5168 13.1842 23.5393 16.3537 23.5019C19.5794 23.5019 21.6799 21.2734 21.6986 18.0899V12.0599C21.6986 8.76404 19.5419 6.57303 16.3724 6.57303C15.3785 6.5543 14.3845 6.81647 13.5218 7.32209C12.1152 8.16479 11.215 9.68164 11.065 11.6105C11.065 11.7041 11.0462 11.7977 11.0462 11.8914C11.0462 12.0412 11.0462 12.2472 11.0462 12.397C11.0462 12.4906 11.1213 12.5468 11.1963 12.5468H13.8031C13.8969 12.5468 13.9531 12.4719 13.9531 12.397V11.8914C13.9907 11.6105 14.0282 11.3109 14.1032 11.0112ZM34.0951 11.9663C34.0951 10.3558 34.9766 9.30711 36.5519 9.30711C38.1085 9.30711 39.0462 10.1124 39.0462 11.7228C39.0462 12.6779 38.3336 13.7453 36.5894 13.7453H34.0951V11.9663ZM38.8024 19.0824C38.5024 20.0749 37.7522 20.7116 36.702 20.7865C35.2766 20.8614 34.0951 19.6816 34.0951 18.2584V16.3858H36.5894C39.7964 16.3858 41.9344 14.6255 41.9344 11.6667C41.9344 8.57677 39.7214 6.5543 36.5519 6.59175C33.3262 6.59175 31.2257 8.82022 31.207 12.0037V18.0337C31.207 21.3296 33.3637 23.5206 36.5332 23.5206C37.5272 23.5393 38.5211 23.2771 39.3838 22.7715C40.7904 21.9288 41.6906 20.412 41.8406 18.4831C41.8406 18.3895 41.8594 18.2959 41.8594 18.2022C41.8594 18.0524 41.8594 17.8464 41.8594 17.6966C41.8594 17.603 41.7844 17.5468 41.7093 17.5468H39.1025C39.0087 17.5468 38.9525 17.6217 38.9525 17.6966V18.2022C38.9337 18.4831 38.8775 18.8015 38.8024 19.0824ZM55.6249 11.9288C55.6062 11.2734 55.5124 10.618 55.3249 9.99999C55.3249 9.98127 55.3061 9.96254 55.3061 9.94381C54.6685 8.20224 53.1306 6.98501 51.2552 6.64793H51.2365C50.9176 6.59175 50.5988 6.57303 50.28 6.57303C49.9987 6.57303 49.7361 6.59175 49.4548 6.62921C48.8734 6.72284 48.3108 6.89138 47.7857 7.13482V0.861415C47.7857 0.730329 47.6732 0.61797 47.5419 0.61797H45.1226C44.9913 0.61797 44.8788 0.730329 44.8788 0.861415V23.2771C44.8788 23.4082 44.9913 23.5206 45.1226 23.5206H47.5419C47.6732 23.5206 47.7857 23.4082 47.7857 23.2771V11.985C47.7857 10.3371 48.8172 9.28838 50.28 9.28838C51.8366 9.28838 52.7368 10.3371 52.7368 11.985V23.2584C52.7368 23.3895 52.8493 23.5019 52.9806 23.5019H55.3999C55.5312 23.5019 55.6437 23.3895 55.6437 23.2584V12.0786C55.6437 12.0412 55.6437 11.985 55.6249 11.9288ZM9.18958 0.599243C5.21369 0.599243 1.98797 3.80149 1.96922 7.77153C1.96922 7.80898 1.96922 7.82771 1.96922 7.86516C1.96922 7.94007 1.96922 8.42696 1.96922 9.06366C1.96922 9.19475 1.85669 9.30711 1.72541 9.30711H0.768951C0.637672 9.30711 0.525146 9.41947 0.525146 9.55055V12.3408C0.525146 12.4719 0.637672 12.5843 0.768951 12.5843H1.70666C1.83794 12.5843 1.95046 12.6966 1.95046 12.8277V23.2771C1.95046 23.4082 2.06299 23.5206 2.19427 23.5206H4.61356C4.74484 23.5206 4.85736 23.4082 4.85736 23.2771V12.809C4.85736 12.6779 4.96989 12.5655 5.10117 12.5655H7.59547C7.72675 12.5655 7.83928 12.4532 7.83928 12.3221V9.55055C7.83928 9.41947 7.72675 9.30711 7.59547 9.30711H4.83861C4.83861 8.46441 4.83861 7.80898 4.83861 7.80898C4.87612 5.4307 6.78904 3.52059 9.17083 3.50187H10.4836C10.6149 3.50187 10.7274 3.38951 10.7274 3.25842V0.842689C10.7274 0.711603 10.6149 0.599243 10.4836 0.599243H9.18958Z" fill="#23366A"/>
<path fill-rule="evenodd" clip-rule="evenodd" d="M24.7556 12.3034C24.7556 5.93632 29.8567 0.730329 36.2331 0.599243C36.3644 0.599243 36.4769 0.711603 36.4769 0.842689V3.6704C36.4769 3.80149 36.3644 3.91385 36.2331 3.91385C31.6946 4.04494 28.0751 7.77153 28.0751 12.3034C28.0751 12.5843 28.0938 12.8464 28.1126 13.1273C28.1313 13.2584 28.0376 13.3708 27.9063 13.3895H27.8875H25.0369C24.9056 13.3895 24.8118 13.2959 24.7931 13.1648C24.7743 12.8839 24.7556 12.603 24.7556 12.3034ZM28.1501 17.7903C28.1501 24.1573 23.0489 29.3633 16.6725 29.4944C16.5412 29.4944 16.4287 29.382 16.4287 29.2509V26.4232C16.4287 26.2921 16.5412 26.1798 16.6725 26.1798C21.211 26.0487 24.8306 22.3221 24.8306 17.7903C24.8306 17.5094 24.8118 17.2472 24.7931 16.9663C24.7743 16.8352 24.8681 16.7228 24.9994 16.7041H25.0181H27.8688C28 16.7041 28.0938 16.7977 28.1126 16.9288C28.1313 17.2097 28.1501 17.4906 28.1501 17.7903Z" fill="#EB5B5E"/>
</svg>
