<svg xmlns="http://www.w3.org/2000/svg" width="172" height="172" version="1.2"><path fill-rule="evenodd" d="m46.7 156.6.6-.1.5 1.2q.2.1.5.2.4.2.6.5.2.4.3.8t0 .8v.3q-.1.1-.1.2-.1.1-.1.2-.1.1-.1.3l-.2.2q-.1.1-.1.2-.1.2-.2.3 0 .1-.1.1l-.2.2-.2.2q-.1 0-.1.1-.1 0-.2.1-.1 0-.2.1-.4.1-.8.1h-.2q-.1-.1-.2-.1t-.2-.1q-.1 0-.2-.1-.1 0-.2-.1-.1 0-.1-.1l-.2-.2q-.1 0-.1-.1-.1-.1-.1-.2-.1-.1-.1-.2-.1 0-.1-.1v-.2q-.1-.1-.1-.2v-.5q.1-.1.1-.2v-.2q.1-.1.1-.3.1-.1.1-.2.1-.1.1-.2l.2-.3q.3-.5.6-.8t.7-.4q.2-.1.4-.1zm-.7 2.7-.2.2q0 .1-.1.2v.2q-.1.1-.1.2t-.1.2v.6q0 .3.2.5.1.2.4.4.3.1.5.1.3.1.6-.1.2-.1.5-.3.1-.1.1-.2.1 0 .2-.1 0-.1.1-.2 0-.1.1-.1l.1-.3q.2-.4.3-.8l.1-.1v-.5q-.1-.1-.1-.3-.1-.1-.1-.2l-.2-.2q-.1-.1-.3-.2h-.1l-.1-.1h-.3q-.1-.1-.1 0h-.3q-.1 0-.1.1-.3.1-.6.3-.2.3-.4.7m-14.7-6.8-.5-.4 2.1-2.6q.4-.4.8-.5.4-.2.9 0 .4.1.8.4t.5.7q.2.4.2.9-.1.4-.4.8l-2.2 2.6-.5-.4 2.2-2.6q.2-.3.3-.6v-.4l-.1-.1q0-.1-.1-.2l-.1-.1-.1-.1q0-.1-.1-.1 0-.1-.1-.1t-.1-.1h-.2q0-.1-.1-.1h-.6q-.2.1-.5.4zm-5.4-11.9.4.5-5 1.7-.1-.1-.3-.3 2.6-4.6.4.5-.7 1.2 1.4 1.6zm-4.2 1.5 2.3-.9c-.3-.3-.7-.9-1-1.2zm-6.5-15.2.5-.3 1.2 2 .3.6-4.3 2.4-.3-.5 3.8-2.2zm-9-8.3 4.6-1.9.2.7-4.5 1.8zm1.1-12.1.2.7.1.6-4.8 1.1s0-.1-.1-.2v-.4l-.2-.7v-.2q-.1-.2-.1-.3v-.2q0-.1.1-.2 0-.5.3-.8 0-.1.1-.2l.1-.1.2-.2q.1 0 .2-.1.4-.2.9-.4h.3q.5-.2.9-.1.3 0 .5.1t.3.2l.4.2q.1.2.3.4.2.3.3.8m-.5.1q-.1-.5-.4-.8-.1 0-.2-.1 0-.1-.1-.1-.1-.1-.2-.1h-.2q-.2-.1-.3-.1h-.2q-.1 0-.3.1h-.2l-.3.1h-.2q-.1 0-.2.1h-.1q-.1.1-.2.1-.3.2-.5.4-.2.3-.2.6-.1.3 0 .7l.2.7 3.8-.9zM4.9 93.3l.1.7-5-1.6v-.2l-.1-.4 4.9-2.1v.6l-1.3.6.1 2zM.7 92l2.4.8c0-.5-.1-1.2-.1-1.7zm4.4-14.3-.2.9v.4L0 78.3l.1-.4.1-.9v-.3q0-.1.1-.2 0-.1.1-.2 0-.1.1-.2 0-.1.1-.2 0-.1.1-.1.1-.1.1-.2.1-.1.2-.1.3-.3.8-.4.4-.1 1 0h.3q.5.1.9.3.2.1.4.3l.3.3q.1.1.2.3t.1.4q.1.5.1 1m-.6-.1q.1-.5-.1-.9 0-.1-.1-.2 0-.1-.1-.2-.1 0-.1-.1-.1-.1-.2-.1-.1-.1-.2-.1-.1-.1-.3-.1-.1-.1-.2-.1H3l-.3-.1h-.8l-.1.1h-.2l-.1.1q-.1 0-.2.1-.2.1-.4.4l-.2.6-.1.8 3.8.5zm3.9-15.9-.8 2.4-.2.6-4.7-1.5.2-.6.8-2.3.5.1-.8 2.4 1.6.5c.1-.5.6-2.1.6-2.1l.5.2-.6 2 1.6.5c.2-.5.8-2.3.8-2.3zM16.3 44l-.4.6-3-4.3v-.2l.1-.1.1-.1.1-.1 5.1 1.1-.3.6-1.4-.3-1.1 1.7zm-2.6-3.5 1.4 1.9c.3-.4.7-.9 1-1.4zM26.4 30l.4.4-1.7 1.8-.4.4-3.6-3.4.5-.5 3.2 3c.3-.3 1.6-1.7 1.6-1.7m7.3-12.4.5-.4 2 2.7q.3.4.4.9 0 .4-.2.8l-.2.2q0 .1-.1.2l-.2.2-.1.1q-.4.3-.9.4-.4.1-.8-.1-.4-.1-.8-.6l-2-2.7.6-.3 2 2.6q.2.3.4.5h.6q.3 0 .5-.2.3-.2.4-.5.1 0 .1-.1v-.1q.1-.1.1-.2t-.1-.1q0-.3-.2-.6zm10.5-6.9 1.4-.7q.5-.3 1-.3.4 0 .7.2t.6.6q.1.3.1.7v.3l-.1.1v.2q-.1.2-.3.3l2 1.4-.6.3-1.9-1.3-1 .5.9 1.8-.6.3zm1.9 2.4-.3-.5-.1.1.2.4zm.7-.9q.3-.2.5-.4v-.1q.1 0 .1-.1V11l-.1-.1v-.1l-.1-.1q0-.1-.1-.1l-.1-.1h-.1l-.1-.1h-.3q-.2 0-.6.1l-.8.5.8 1.7zm13.1-3-.7.2.5-5.2.1-.1.4-.1 3.2 4.2-.6.2-.8-1.1-2 .6zm.3-4.4L60 7.2l1.6-.4zm31.5-2 .7-.9-1-.4.3-.5.9.5.1-1.2.5.1-.1 1.2 1-.3.1.5-1 .2.5 1-.4.3-.5-1-.7.8zm31.1 11.7-.5.2-.6-1.2-.1-.1h-.2q-.1-.1-.2-.1l-.1-.1q-.1-.1-.2-.1l-.2-.2q0-.1-.1-.1-.1-.1-.1-.2-.1-.1-.1-.2-.1-.1-.1-.2v-.1q-.1-.2-.1-.3v-.6q.1-.5.4-.9l.1-.3q.1-.1.1-.2.1-.2.2-.3t.1-.2q.1 0 .2-.1l.2-.2.1-.1q.1-.1.2-.1.1-.1.2-.1.4-.2.8-.1.4 0 .8.2t.6.5q.3.3.4.7t0 .9q-.1.1-.1.2t-.1.3q0 .1-.1.2 0 .1-.1.2l-.1.3q-.3.5-.6.8l-.2.2-.1.1q-.1 0-.2.1-.1 0-.2.1-.2.1-.4.1zm.7-2.7.1-.3q.2-.4.3-.7.1-.4 0-.7v-.2q-.1-.1-.1-.2l-.1-.1-.1-.1-.1-.1-.1-.1h-.1q-.1-.1-.2-.1h-.1l-.1-.1h-.4q-.1 0-.2.1h-.1l-.1.1q-.1 0-.2.1l-.1.1q-.1 0-.1.1-.3.3-.5.6l-.1.3q-.1.1-.1.2t-.1.2v.2q-.1.1-.1.2v.6q0 .3.2.5l.4.4q.3.1.6.1t.5-.1q.3-.1.5-.4.3-.2.5-.6m14.9 6.3.5.4-2.1 2.6q-.4.5-.8.6t-.8 0h-.3q-.1-.1-.2-.1-.1-.1-.2-.1-.1-.1-.1-.2-.1 0-.2-.1l-.2-.2q-.1-.1-.1-.2-.1-.1-.1-.2-.1-.1-.1-.2-.1-.1-.1-.2v-.4q0-.4.4-.9l2.1-2.6.5.4-2.1 2.6q-.2.3-.3.6v.4l.1.1q.1.3.4.5t.5.3h.4q.1 0 .2-.1.2-.1.5-.4zm5.8 11.8-.5-.5 5-1.9.1.1.1.2.1.1.1.1-2.5 4.6-.4-.5.6-1.2-1.3-1.5zm4-1.6-2.2.9c.3.3.7.9 1.1 1.2zm6.9 15-.5.3-1.3-2.1-.3-.4 4.2-2.6.4.5-3.8 2.3zm9.2 8.1-4.5 2-.3-.6 4.6-2zm-.8 12.1-.2-1-.1-.3 4.8-1.3v.3l.1.3v.1l.2.7q.1.5.1.9 0 .1-.1.2v.2q0 .1-.1.2 0 .1-.1.2t-.1.2q-.1 0-.2.1 0 .1-.1.2-.1 0-.2.1-.4.2-.9.4l-.3.1q-.5.1-.9.1-.3-.1-.5-.1l-.4-.2q-.1-.1-.3-.2-.2-.2-.3-.4-.1-.1-.1-.2-.1-.1-.1-.2-.1-.1-.1-.2t-.1-.2m.5-.2q.2.6.5.8.3.3.7.4t1-.1h.3q.4-.2.7-.3 0-.1.1-.1l.1-.1.1-.1q.1-.1.1-.2.1 0 .1-.1t.1-.1v-.3q.1-.3 0-.7l-.2-.7-3.7 1zm2.1 13.2v-.7l5.1 1.5v.6l-4.8 2.3v-.7l1.2-.6-.1-2zm4.2 1.1-2.4-.6.2 1.7zm-4 14.4.1-1 .1-.3 4.9.5-.1.3-.1 1.1v.2q0 .1-.1.2v.2q-.1.1-.1.2-.1.1-.1.2l-.2.2q0 .1-.1.1l-.2.2q-.3.2-.7.3-.2.1-.3.1h-1q-.1 0-.2-.1h-.3q-.1-.1-.2-.1t-.2-.1l-.4-.2q-.2-.1-.3-.3-.2-.2-.3-.4t-.1-.4q0-.1-.1-.2zm.6.1q-.1.5.1.9.2.3.5.5.4.3 1 .3l.3.1q.4 0 .7-.1h.2q.1 0 .1-.1h.2q0-.1.1-.1l.1-.1.1-.1.1-.1q.1-.1.1-.2.2-.2.2-.6l.1-.7-3.9-.4zm-2.9 16.1-.5-.2.7-2.5.2-.5 4.7 1.3-.1.5-.7 2.5-.5-.1.6-2.4-1.5-.4-.6 2.1-.5-.2.6-2-1.7-.5zm-7.9 17.7.4-.5 3.1 4.2v.1l-.1.1-.1.1-.1.2-5.1-1.1.3-.5 1.4.3 1-1.8zm2.8 3.5-1.6-2-.8 1.5zm-12.5 10.8-.4-.3 1.7-1.9.3-.4 3.7 3.3-.4.5-3.3-2.9zm-6.9 12.6-.6.4-2-2.6q-.4-.4-.4-.9v-.4q.1-.1.1-.2t.1-.2q0-.1.1-.2t.1-.2l.2-.2q.1-.1.2-.1 0-.1.1-.2.1 0 .2-.1.2 0 .3-.1h.2q.1-.1.2-.1h.4q.1.1.2.1.4.1.8.6l2.1 2.6-.6.4-2-2.6q-.3-.3-.5-.4-.1-.1-.2-.1h-.4l-.1.1h-.2q0 .1-.1.1t-.1.1q-.3.2-.4.5l-.1.1v.4q.1.3.3.6zm-10.3 7.2-1.4.8q-.5.2-1 .2-.1.1-.2 0h-.3q-.1-.1-.2-.1-.3-.2-.6-.6v-.2l-.1-.1v-.8q.1-.1.1-.2.1-.2.2-.3l-2-1.4.6-.3 1.9 1.2 1-.5-.9-1.8.6-.3zm-2-2.3.3.5.1-.1-.2-.4zm-.7.9q-.3.2-.4.4-.1 0-.1.1t-.1.1v.5q0 .1.1.1v.1q.2.3.4.4t.4.1q.3 0 .6-.1l.9-.5-.9-1.7zm-13 3.3.6-.2-.3 5.3-.4.1-.1.1-3.3-4.2.6-.2.9 1.1 1.9-.6zm-.1 4.4.1-2.5-1.6.6zM82 169.1l-.7.9 1 .4-.2.5-1-.5-.1 1.2h-.5l.1-1.2-1 .3-.1-.5 1-.3-.6-.9.5-.3.5 1 .7-.9z" style="fill:#2bdefd"/></svg>